<svg xmlns="http://www.w3.org/2000/svg" viewBox="0 0 1000 700" role="img" aria-labelledby="title desc">
  <title id="title">One Matchmaking 1M monogram — black</title>
  <desc id="desc">Single-color black version of the One Matchmaking 1M monogram.</desc>
  <g fill="#171717">
    <path d="M250 115 C295 102 330 83 365 55 L365 474 C365 523 387 548 430 558 L430 575 L205 575 L205 558 C250 548 272 523 272 474 L272 183 C272 147 258 130 224 132 L224 117 C233 117 242 116 250 115Z"/>
    <path d="M319 247 C383 229 433 246 471 293 C510 342 541 406 581 463 C616 513 647 540 677 540 C707 540 728 512 728 468 L728 219 L760 166 L812 166 L812 474 C812 523 834 548 879 558 L879 575 L682 575 L682 558 C713 549 728 525 728 483 L728 301 C699 356 674 405 652 447 C628 493 605 521 580 529 C545 540 514 510 481 461 L399 337 C373 298 348 279 319 281Z"/>
    <path d="M585 337 L727 166 L754 166 L606 351 Z"/>
  </g>
</svg>
